# xmcd
#
# Track frame offsets: 
#        150
#        18107
#        35709
#        55821
#        79096
#        104128
#        126483
#        147987
#        164862
#        182283
#
# Disc length: 2712 seconds
#
# Revision: 0
# Processed by: cddbd v1.5.2PL0 Copyright (c) Steve Scherf et al.
# Submitted via: ExactAudioCopy v0.99pb5
#
DISCID=8d0a960a
DTITLE=Dwayne Dopsie and the Zydeco Hellraisers - Up In Flames
DYEAR=2009
DGENRE=Blues
TTITLE0=I'm Gonna Walk
TTITLE1=Feel So Good
TTITLE2=Better Go Get It
TTITLE3=Just Come Back Home
TTITLE4=I'm a Fool For You
TTITLE5=Don't Listen
TTITLE6=Got My Mind Gone
TTITLE7=Start All Over Again
TTITLE8=Back In The Woods
TTITLE9=Take Over
EXTD=
EXTT0=
EXTT1=
EXTT2=
EXTT3=
EXTT4=
EXTT5=
EXTT6=
EXTT7=
EXTT8=
EXTT9=
PLAYORDER=
